<?xml version="1.0" standalone="no"?>
<!DOCTYPE svg PUBLIC "-//W3C//DTD SVG 20010904//EN"
 "http://www.w3.org/TR/2001/REC-SVG-20010904/DTD/svg10.dtd">
<svg version="1.0" xmlns="http://www.w3.org/2000/svg"
 width="260.000000pt" height="260.000000pt" viewBox="0 0 260.000000 260.000000"
 preserveAspectRatio="xMidYMid meet">
<metadata>
Created by potrace 1.14, written by Peter Selinger 2001-2017
</metadata>
<g transform="translate(0.000000,260.000000) scale(0.100000,-0.100000)"
fill="#000000" stroke="none">
<path d="M195 2438 c-47 -25 -45 14 -45 -1032 1 -763 3 -995 13 -1007 17 -23
50 -38 73 -34 10 2 22 4 26 4 12 1 1955 1947 1967 1968 5 11 8 28 6 39 -2 10
-4 22 -4 26 -1 4 -11 16 -23 28 -22 20 -29 20 -1007 20 -694 -1 -992 -4 -1006
-12z"/>
<path d="M2326 2228 c-34 -19 -1964 -1956 -1971 -1978 -9 -28 11 -74 38 -89
16 -8 278 -11 1015 -9 l993 3 19 25 c19 24 20 54 20 1007 0 712 -3 989 -11
1007 -17 36 -69 54 -103 34z"/>
</g>
</svg>
